<?xml version="1.0" encoding="UTF-8" standalone="no"?>
<!DOCTYPE svg PUBLIC "-//W3C//DTD SVG 1.1//EN"
 "http://www.w3.org/Graphics/SVG/1.1/DTD/svg11.dtd">
<!-- Generated by graphviz version 2.49.3 (20211023.0002)
 -->
<!-- Title: Nematoda Key Pages: 1 -->
<svg width="548pt" height="475pt"
 viewBox="0.00 0.00 547.59 475.00" xmlns="http://www.w3.org/2000/svg" xmlns:xlink="http://www.w3.org/1999/xlink">
<g id="graph0" class="graph" transform="scale(1 1) rotate(0) translate(4 471)">
<title>Nematoda Key</title>
<polygon fill="white" stroke="transparent" points="-4,4 -4,-471 543.59,-471 543.59,4 -4,4"/>
<!-- 001 -->
<g id="node1" class="node">
<title>001</title>
<ellipse fill="red" stroke="black" cx="94.75" cy="-72" rx="94.51" ry="26.74"/>
<text text-anchor="middle" x="94.75" y="-75.8" font-family="Times New Roman,serif" font-size="14.00">Key to Nematoda</text>
<text text-anchor="middle" x="94.75" y="-60.8" font-family="Times New Roman,serif" font-size="14.00">in the Kootenay Area</text>
</g>
<!-- 001.1 -->
<g id="node2" class="node">
<title>001.1</title>
<ellipse fill="aqua" stroke="black" cx="289.55" cy="-72" rx="63.09" ry="18"/>
<text text-anchor="middle" x="289.55" y="-68.3" font-family="Times New Roman,serif" font-size="14.00">Cephalic setae</text>
</g>
<!-- 001&#45;&gt;001.1 -->
<g id="edge1" class="edge">
<title>001&#45;&gt;001.1</title>
<path fill="none" stroke="black" d="M189.61,-72C198.56,-72 207.53,-72 216.23,-72"/>
<polygon fill="black" stroke="black" points="216.3,-75.5 226.3,-72 216.3,-68.5 216.3,-75.5"/>
</g>
<!-- 002 -->
<g id="node3" class="node">
<title>002</title>
<ellipse fill="none" stroke="black" cx="512.59" cy="-126" rx="27" ry="18"/>
<text text-anchor="middle" x="512.59" y="-122.3" font-family="Times New Roman,serif" font-size="14.00">002</text>
</g>
<!-- 001.1&#45;&gt;002 -->
<g id="edge2" class="edge">
<title>001.1&#45;&gt;002</title>
<path fill="none" stroke="black" d="M323.85,-87.27C338.01,-93.25 354.86,-99.69 370.59,-104 405.71,-113.63 446.97,-119.45 475.75,-122.66"/>
<polygon fill="black" stroke="black" points="475.44,-126.15 485.76,-123.73 476.18,-119.19 475.44,-126.15"/>
<text text-anchor="middle" x="419.09" y="-124.8" font-family="Times New Roman,serif" font-size="14.00">Indistinct</text>
</g>
<!-- 064 -->
<g id="node4" class="node">
<title>064</title>
<ellipse fill="none" stroke="black" cx="512.59" cy="-72" rx="27" ry="18"/>
<text text-anchor="middle" x="512.59" y="-68.3" font-family="Times New Roman,serif" font-size="14.00">064</text>
</g>
<!-- 001.1&#45;&gt;064 -->
<g id="edge3" class="edge">
<title>001.1&#45;&gt;064</title>
<path fill="none" stroke="black" d="M352.71,-72C392.23,-72 442.03,-72 475.24,-72"/>
<polygon fill="black" stroke="black" points="475.41,-75.5 485.41,-72 475.41,-68.5 475.41,-75.5"/>
<text text-anchor="middle" x="419.09" y="-90.8" font-family="Times New Roman,serif" font-size="14.00">Setae&#45;like</text>
<text text-anchor="middle" x="419.09" y="-75.8" font-family="Times New Roman,serif" font-size="14.00">head appendages</text>
</g>
<!-- 069 -->
<g id="node5" class="node">
<title>069</title>
<ellipse fill="none" stroke="black" cx="512.59" cy="-18" rx="27" ry="18"/>
<text text-anchor="middle" x="512.59" y="-14.3" font-family="Times New Roman,serif" font-size="14.00">069</text>
</g>
<!-- 001.1&#45;&gt;069 -->
<g id="edge4" class="edge">
<title>001.1&#45;&gt;069</title>
<path fill="none" stroke="black" d="M337.97,-60.42C379.71,-50.22 439.52,-35.61 476.92,-26.47"/>
<polygon fill="black" stroke="black" points="477.96,-29.82 486.85,-24.05 476.3,-23.02 477.96,-29.82"/>
<text text-anchor="middle" x="419.09" y="-55.8" font-family="Times New Roman,serif" font-size="14.00">Visible</text>
</g>
<g id="node6" class="node">
<title></title>
<path fill="#66cdaa" stroke="blue" d="M121.75,-136.51C121.75,-136.51 121.75,-141.49 121.75,-141.49 121.75,-143.97 119.68,-147.83 117.62,-149.21 117.62,-149.21 110.07,-154.24 110.07,-154.24 108,-155.62 103.45,-157 100.97,-157 100.97,-157 88.54,-157 88.54,-157 86.05,-157 81.5,-155.62 79.43,-154.24 79.43,-154.24 71.89,-149.21 71.89,-149.21 69.82,-147.83 67.75,-143.97 67.75,-141.49 67.75,-141.49 67.75,-136.51 67.75,-136.51 67.75,-134.03 69.82,-130.17 71.89,-128.79 71.89,-128.79 79.43,-123.76 79.43,-123.76 81.5,-122.38 86.05,-121 88.54,-121 88.54,-121 100.97,-121 100.97,-121 103.45,-121 108,-122.38 110.07,-123.76 110.07,-123.76 117.62,-128.79 117.62,-128.79 119.68,-130.17 121.75,-134.03 121.75,-136.51"/>
<path fill="none" stroke="blue" d="M125.75,-135.8C125.75,-135.8 125.75,-142.2 125.75,-142.2 125.75,-145.4 123.09,-150.37 120.43,-152.15 120.43,-152.15 112.47,-157.45 112.47,-157.45 109.81,-159.23 103.95,-161 100.75,-161 100.75,-161 88.76,-161 88.76,-161 85.56,-161 79.7,-159.23 77.03,-157.45 77.03,-157.45 69.08,-152.15 69.08,-152.15 66.41,-150.37 63.75,-145.4 63.75,-142.2 63.75,-142.2 63.75,-135.8 63.75,-135.8 63.75,-132.6 66.41,-127.63 69.08,-125.85 69.08,-125.85 77.03,-120.55 77.03,-120.55 79.7,-118.77 85.56,-117 88.76,-117 88.76,-117 100.75,-117 100.75,-117 103.95,-117 109.81,-118.77 112.47,-120.55 112.47,-120.55 120.43,-125.85 120.43,-125.85 123.09,-127.63 125.75,-132.6 125.75,-135.8"/>
</g>
<!-- &#45;&gt; -->
<g id="edge5" class="edge">
<title>&#45;&gt;</title>
<path fill="none" stroke="black" d="M93.27,-161.21C93.15,-170.8 93.64,-179 94.75,-179 95.43,-179 95.88,-175.95 96.09,-171.4"/>
<polygon fill="black" stroke="black" points="99.6,-171.26 96.23,-161.21 92.6,-171.16 99.6,-171.26"/>
</g>
<!-- &#45;&gt; -->
<g id="edge6" class="edge">
<title>&#45;&gt;</title>
<path fill="none" stroke="black" d="M92.17,-161.02C91.14,-178.72 92,-197 94.75,-197 96.97,-197 97.95,-185.17 97.72,-171.32"/>
<polygon fill="black" stroke="black" points="101.2,-170.88 97.33,-161.02 94.21,-171.14 101.2,-170.88"/>
</g>
<!-- &#45;&gt; -->
<g id="edge7" class="edge">
<title>&#45;&gt;</title>
<path fill="none" stroke="black" d="M91.41,-161.17C89.12,-186.2 90.23,-215 94.75,-215 98.67,-215 100.03,-193.34 98.83,-171.27"/>
<polygon fill="black" stroke="black" points="102.31,-170.89 98.09,-161.17 95.33,-171.4 102.31,-170.89"/>
</g>
<!-- &#45;&gt; -->
<g id="edge8" class="edge">
<title>&#45;&gt;</title>
<path fill="none" stroke="black" d="M90.87,-161.18C87.08,-193.21 88.38,-233 94.75,-233 100.45,-233 102.09,-201.16 99.67,-171.52"/>
<polygon fill="black" stroke="black" points="103.11,-170.79 98.64,-161.18 96.14,-171.48 103.11,-170.79"/>
</g>
<!-- &#45;&gt; -->
<g id="edge9" class="edge">
<title>&#45;&gt;</title>
<path fill="none" stroke="black" d="M90.44,-161.26C85.05,-200.04 86.49,-251 94.75,-251 102.3,-251 104.15,-208.42 100.3,-171.49"/>
<polygon fill="black" stroke="black" points="103.74,-170.77 99.06,-161.26 96.79,-171.61 103.74,-170.77"/>
</g>
<!-- &#45;&gt; -->
<g id="edge10" class="edge">
<title>&#45;&gt;</title>
<path fill="none" stroke="black" d="M90.15,-161.05C83.02,-206.44 84.56,-269 94.75,-269 104.21,-269 106.21,-215.16 100.76,-171.13"/>
<polygon fill="black" stroke="black" points="104.2,-170.47 99.35,-161.05 97.27,-171.44 104.2,-170.47"/>
</g>
<!-- &#45;&gt; -->
<g id="edge11" class="edge">
<title>&#45;&gt;</title>
<path fill="none" stroke="black" d="M89.85,-161.27C81.01,-213.14 82.64,-287 94.75,-287 106.11,-287 108.25,-222.08 101.19,-171.23"/>
<polygon fill="black" stroke="black" points="104.63,-170.62 99.65,-161.27 97.72,-171.69 104.63,-170.62"/>
</g>
<!-- &#45;&gt; -->
<g id="edge12" class="edge">
<title>&#45;&gt;</title>
<path fill="none" stroke="black" d="M89.64,-161.24C78.99,-219.51 80.69,-305 94.75,-305 108.02,-305 110.29,-228.92 101.55,-171.38"/>
<polygon fill="black" stroke="black" points="104.96,-170.53 99.86,-161.24 98.05,-171.68 104.96,-170.53"/>
</g>
<!-- &#45;&gt; -->
<g id="edge13" class="edge">
<title>&#45;&gt;</title>
<path fill="none" stroke="black" d="M89.49,-161.09C76.97,-225.7 78.72,-323 94.75,-323 109.97,-323 112.32,-235.33 101.81,-171.16"/>
<polygon fill="black" stroke="black" points="105.21,-170.32 100.01,-161.09 98.32,-171.54 105.21,-170.32"/>
</g>
<!-- &#45;&gt; -->
<g id="edge14" class="edge">
<title>&#45;&gt;</title>
<path fill="none" stroke="black" d="M89.28,-161.39C74.96,-232.3 76.78,-341 94.75,-341 111.88,-341 114.34,-242.25 102.13,-171.59"/>
<polygon fill="black" stroke="black" points="105.5,-170.57 100.23,-161.39 98.62,-171.86 105.5,-170.57"/>
</g>
<!-- &#45;&gt; -->
<g id="edge15" class="edge">
<title>&#45;&gt;</title>
<path fill="none" stroke="black" d="M89.14,-161.38C72.95,-238.54 74.81,-359 94.75,-359 113.83,-359 116.36,-248.67 102.35,-171.55"/>
<polygon fill="black" stroke="black" points="105.71,-170.52 100.36,-161.38 98.84,-171.86 105.71,-170.52"/>
</g>
<!-- &#45;&gt; -->
<g id="edge16" class="edge">
<title>&#45;&gt;</title>
<path fill="none" stroke="black" d="M89.1,-161.06C70.93,-244.43 72.81,-377 94.75,-377 115.83,-377 118.4,-254.59 102.45,-171.04"/>
<polygon fill="black" stroke="black" points="105.84,-170.16 100.41,-161.06 98.98,-171.56 105.84,-170.16"/>
</g>
<!-- &#45;&gt; -->
<g id="edge17" class="edge">
<title>&#45;&gt;</title>
<path fill="none" stroke="black" d="M89.01,-161.01C68.92,-250.57 70.83,-395 94.75,-395 117.81,-395 120.42,-260.82 102.59,-170.92"/>
<polygon fill="black" stroke="black" points="105.99,-170.07 100.5,-161.01 99.14,-171.52 105.99,-170.07"/>
</g>
<!-- &#45;&gt; -->
<g id="edge18" class="edge">
<title>&#45;&gt;</title>
<path fill="none" stroke="black" d="M88.91,-161.04C66.91,-256.77 68.86,-413 94.75,-413 119.76,-413 122.43,-267.27 102.77,-171.06"/>
<polygon fill="black" stroke="black" points="106.13,-170.07 100.59,-161.04 99.29,-171.55 106.13,-170.07"/>
</g>
<!-- &#45;&gt; -->
<g id="edge19" class="edge">
<title>&#45;&gt;</title>
<path fill="none" stroke="black" d="M88.79,-161.19C64.9,-263.1 66.89,-431 94.75,-431 121.72,-431 124.44,-273.75 102.94,-171.24"/>
<polygon fill="black" stroke="black" points="106.29,-170.2 100.71,-161.19 99.46,-171.72 106.29,-170.2"/>
</g>
<!-- &#45;&gt; -->
<g id="edge20" class="edge">
<title>&#45;&gt;</title>
<path fill="none" stroke="black" d="M88.72,-161.2C62.9,-269.25 64.91,-449 94.75,-449 123.69,-449 126.46,-279.97 103.05,-171.2"/>
<polygon fill="black" stroke="black" points="106.41,-170.18 100.79,-161.2 99.58,-171.73 106.41,-170.18"/>
</g>
<!-- &#45;&gt; -->
<g id="edge21" class="edge">
<title>&#45;&gt;</title>
<path fill="none" stroke="black" d="M88.69,-161.06C60.89,-275.21 62.91,-467 94.75,-467 125.69,-467 128.48,-285.92 103.11,-170.94"/>
<polygon fill="black" stroke="black" points="106.48,-170.01 100.82,-161.06 99.66,-171.59 106.48,-170.01"/>
</g>
</g>
</svg>
